HIERARCHY
ROOT Hips
{
 OFFSET 0.000000 0.000000 0.000000
 CHANNELS 6 Xposition Yposition Zposition Yrotation Xrotation Zrotation
 JOINT Chest
 {
  OFFSET 0.000000 9.585900 0.002600
  CHANNELS 3 Yrotation Xrotation Zrotation
  JOINT Chest2
  {
   OFFSET 0.000000 9.601200 -0.005300
   CHANNELS 3 Yrotation Xrotation Zrotation
   JOINT Chest3
   {
    OFFSET 0.000000 9.561800 0.000000
    CHANNELS 3 Yrotation Xrotation Zrotation
    JOINT Chest4
    {
     OFFSET 0.000000 9.552100 0.000000
     CHANNELS 3 Yrotation Xrotation Zrotation
     JOINT Neck
     {
      OFFSET 0.000000 14.453000 0.000000
      CHANNELS 3 Yrotation Xrotation Zrotation
      JOINT Head
      {
       OFFSET 0.000000 8.936500 -0.011300
       CHANNELS 3 Yrotation Xrotation Zrotation
       End Site
       {
        OFFSET 0.000000 17.073600 -0.006000
       }
      }
     }
     JOINT RightCollar
     {
      OFFSET -2.921100 9.558500 0.000000
      CHANNELS 3 Yrotation Xrotation Zrotation
      JOINT RightShoulder
      {
       OFFSET -13.519700 0.000000 0.000000
       CHANNELS 3 Yrotation Xrotation Zrotation
       JOINT RightElbow
       {
        OFFSET 0.000000 -29.696600 0.000000
        CHANNELS 3 Yrotation Xrotation Zrotation
        JOINT RightWrist
        {
         OFFSET 0.000000 -24.004700 0.000000
         CHANNELS 3 Yrotation Xrotation Zrotation
         End Site
         {
          OFFSET 0.000000 -17.728500 0.000000
         }
        }
       }
      }
     }
     JOINT LeftCollar
     {
      OFFSET 2.921100 9.558500 0.000000
      CHANNELS 3 Yrotation Xrotation Zrotation
      JOINT LeftShoulder
      {
       OFFSET 13.519700 0.000000 0.000000
       CHANNELS 3 Yrotation Xrotation Zrotation
       JOINT LeftElbow
       {
        OFFSET 0.000000 -29.696600 0.000000
        CHANNELS 3 Yrotation Xrotation Zrotation
        JOINT LeftWrist
        {
         OFFSET 0.000000 -24.004700 0.000000
         CHANNELS 3 Yrotation Xrotation Zrotation
         End Site
         {
          OFFSET 0.000000 -17.728500 0.000000
         }
        }
       }
      }
     }
    }
   }
  }
 }
 JOINT RightHip
 {
  OFFSET -7.771700 -0.012900 -0.001300
  CHANNELS 3 Yrotation Xrotation Zrotation
  JOINT RightKnee
  {
   OFFSET 0.000000 -40.869800 0.001200
   CHANNELS 3 Yrotation Xrotation Zrotation
   JOINT RightAnkle
   {
    OFFSET 0.000000 -39.717900 0.002100
    CHANNELS 3 Yrotation Xrotation Zrotation
    JOINT RightToe
    {
     OFFSET 0.000000 -4.965400 11.033500
     CHANNELS 3 Yrotation Xrotation Zrotation
     End Site
     {
      OFFSET 0.000000 -1.423100 5.872300
     }
    }
   }
  }
 }
 JOINT LeftHip
 {
  OFFSET 7.771700 -0.012900 -0.001300
  CHANNELS 3 Yrotation Xrotation Zrotation
  JOINT LeftKnee
  {
   OFFSET 0.000000 -40.869800 0.001200
   CHANNELS 3 Yrotation Xrotation Zrotation
   JOINT LeftAnkle
   {
    OFFSET 0.000000 -39.717900 0.002100
    CHANNELS 3 Yrotation Xrotation Zrotation
    JOINT LeftToe
    {
     OFFSET 0.000000 -4.965400 11.033500
     CHANNELS 3 Yrotation Xrotation Zrotation
     End Site
     {
      OFFSET 0.000000 -1.423100 5.872300
     }
    }
   }
  }
 }
}
MOTION
Frames: 12
Frame Time: 0.008333
-68.678689 53.165820 -24.633825 179.360270 -16.568018 -2.472412 -0.290701 16.048323 0.796404 -0.035328 1.590686 0.083141 -0.059879 2.641031 0.141343 -0.246058 14.249311 0.744197 -0.515232 16.924651 -4.810245 0.556673 -7.816878 -5.001101 -0.371633 -1.507854 1.942531 2.127727 -6.766740 -5.422706 -60.241669 -82.857030 91.878408 -4.600395 -31.222067 -17.764094 -6.691295 -2.207811 1.170422 -0.084972 -8.400953 11.263735 57.599032 -63.689550 -103.828373 1.771934 -20.215325 13.975629 -1.483137 -61.425422 14.735452 163.592979 87.895829 163.734862 -13.519076 -22.406788 11.846532 0.013790 -0.024090 -0.038479 3.921358 -60.280136 -1.483890 121.992845 77.568561 121.111383 -5.292460 -20.575807 -1.908187 -0.017514 0.023911 -0.005853
-68.679065 53.165561 -24.635652 179.355684 -16.560110 -2.474436 -0.282540 16.065690 0.798859 -0.035639 1.580201 0.085105 -0.061522 2.629638 0.140748 -0.237033 14.266950 0.746747 -0.522177 16.909607 -4.808583 0.550314 -7.827933 -4.995294 -0.380031 -1.530066 1.939217 2.141819 -6.765508 -5.426029 -60.239914 -82.852667 91.866350 -4.603135 -31.214293 -17.751453 -6.703708 -2.232897 1.185800 -0.085557 -8.397687 11.255406 57.572792 -63.699738 -103.821787 1.773811 -20.229372 13.993793 -1.478430 -61.434174 14.717207 163.199981 87.886442 163.325828 -13.336241 -22.410899 11.825729 0.020192 -0.034173 -0.042312 3.925049 -60.286126 -1.483357 121.984118 77.568104 121.105382 -5.292986 -20.577360 -1.909480 -0.018292 0.024840 -0.005683
-68.680264 53.165163 -24.637649 179.353428 -16.552742 -2.473518 -0.277976 16.073791 0.800092 -0.035104 1.581512 0.085304 -0.062678 2.629355 0.141557 -0.230021 14.274696 0.748457 -0.529686 16.893508 -4.805332 0.547063 -7.837498 -4.996665 -0.388501 -1.554945 1.937099 2.144265 -6.764697 -5.425996 -60.225052 -82.852137 91.852451 -4.608433 -31.224421 -17.732517 -6.713906 -2.264354 1.200780 -0.090066 -8.395963 11.260765 57.561307 -63.699885 -103.829415 1.767635 -20.226961 13.994445 -1.463107 -61.444260 14.689985 162.995675 87.875800 163.113617 -13.207678 -22.412393 11.814151 0.024731 -0.039829 -0.041716 3.932553 -60.291424 -1.490043 121.973360 77.567325 121.097063 -5.294984 -20.575669 -1.917944 -0.018204 0.023818 0.001633
-68.681782 53.164826 -24.640200 179.353749 -16.548967 -2.472674 -0.277830 16.085616 0.800655 -0.034799 1.583288 0.085610 -0.056967 2.652153 0.142974 -0.231883 14.261684 0.750477 -0.533371 16.877894 -4.803753 0.535193 -7.851885 -4.988767 -0.390590 -1.581886 1.922794 2.145412 -6.766566 -5.419279 -60.218801 -82.849817 91.849919 -4.606199 -31.228139 -17.739043 -6.719597 -2.300582 1.215026 -0.092886 -8.392541 11.262997 57.547591 -63.723054 -103.850780 1.769967 -20.219847 13.990364 -1.457022 -61.448925 14.674192 162.886227 87.868356 162.996553 -13.150294 -22.412965 11.814971 0.027353 -0.039480 -0.036989 3.937779 -60.293484 -1.496308 121.976035 77.568251 121.097503 -5.292324 -20.577241 -1.915372 -0.023113 0.026277 -0.002262
-68.685082 53.164255 -24.642419 179.351002 -16.543808 -2.461389 -0.278859 16.087914 0.790474 -0.034867 1.592510 0.087102 -0.056400 2.655516 0.143524 -0.230916 14.255510 0.750469 -0.541096 16.878592 -4.800441 0.526520 -7.866643 -4.983936 -0.383022 -1.605054 1.912858 2.136017 -6.758991 -5.416521 -60.236604 -82.851238 91.877037 -4.606475 -31.227844 -17.740495 -6.721491 -2.319313 1.221567 -0.098093 -8.396784 11.271817 57.550211 -63.725432 -103.868500 1.777701 -20.221266 14.000497 -1.430401 -61.459057 14.694745 164.143960 87.888451 164.302877 -13.528099 -22.396838 11.871040 0.010397 -0.011804 -0.013191 3.961023 -60.297176 -1.519813 121.986552 77.566181 121.102859 -5.294298 -20.578187 -1.909576 -0.022918 0.024507 -0.003289
-68.687872 53.163574 -24.644157 179.344048 -16.537110 -2.452734 -0.274853 16.088325 0.784190 -0.033878 1.600867 0.089313 -0.055877 2.658962 0.144009 -0.230082 14.250230 0.751023 -0.548057 16.881387 -4.795688 0.505489 -7.876157 -4.967233 -0.380666 -1.627344 1.905058 2.130557 -6.765420 -5.420107 -60.170115 -82.846038 91.823935 -4.604706 -31.217437 -17.741877 -6.724547 -2.337756 1.227229 -0.104384 -8.402371 11.281609 57.553126 -63.719814 -103.879564 1.780075 -20.221978 14.005474 -1.408767 -61.470979 14.729704 165.535378 87.912377 165.746080 -13.939035 -22.376130 11.930625 -0.007292 0.011517 0.006281 3.983559 -60.301036 -1.538567 121.966061 77.564165 121.082744 -5.297121 -20.579777 -1.908639 -0.022423 0.025970 -0.004578
-68.690230 53.163080 -24.646417 179.342837 -16.534865 -2.448588 -0.275470 16.099607 0.782867 -0.031173 1.601610 0.089714 -0.055680 2.661979 0.144532 -0.228006 14.262001 0.752531 -0.556710 16.869237 -4.790953 0.504876 -7.892371 -4.972509 -0.382956 -1.660709 1.898373 2.130457 -6.769999 -5.424310 -60.146734 -82.856145 91.819595 -4.609908 -31.212931 -17.762143 -6.735458 -2.385243 1.254281 -0.097677 -8.399503 11.268465 57.540469 -63.703798 -103.869972 1.758468 -20.221983 14.001423 -1.399555 -61.475296 14.718972 165.411306 87.903367 165.620284 -13.955799 -22.370782 11.938606 -0.005380 0.003132 0.004153 3.996741 -60.297367 -1.557949 121.923938 77.561195 121.044207 -5.294797 -20.585641 -1.911727 -0.023970 0.031951 -0.005897
-68.692116 53.162385 -24.647957 179.344132 -16.529440 -2.447863 -0.274177 16.106580 0.786117 -0.032687 1.595981 0.087718 -0.054633 2.671299 0.145612 -0.225862 14.269702 0.755838 -0.564549 16.860993 -4.786463 0.495452 -7.901845 -4.965508 -0.384779 -1.688479 1.889842 2.133327 -6.772364 -5.426026 -60.130327 -82.861035 91.804969 -4.605390 -31.189292 -17.741731 -6.742484 -2.421712 1.265586 -0.100732 -8.401785 11.272042 57.523606 -63.701934 -103.868012 1.746291 -20.226675 14.006568 -1.394366 -61.483112 14.707096 165.303031 87.901080 165.503688 -13.894699 -22.368341 11.934339 -0.001287 -0.007115 0.000350 4.002960 -60.303178 -1.567165 121.920142 77.557459 121.037492 -5.292453 -20.586861 -1.906856 -0.030680 0.032082 -0.008151
-68.692603 53.161859 -24.649658 179.344887 -16.526425 -2.454814 -0.270146 16.114935 0.795870 -0.034099 1.591059 0.086943 -0.054931 2.672847 0.145272 -0.223787 14.283396 0.762143 -0.578349 16.861908 -4.780451 0.471883 -7.911674 -4.950548 -0.391656 -1.719681 1.877880 2.139384 -6.764718 -5.421466 -60.123807 -82.872195 91.804019 -4.602702 -31.174526 -17.739648 -6.750824 -2.457685 1.274720 -0.105287 -8.407637 11.279225 57.515407 -63.697143 -103.866131 1.740767 -20.216561 13.984703 -1.403605 -61.485264 14.693583 164.912363 87.887524 165.091120 -13.681361 -22.374028 11.904960 0.008307 -0.022153 -0.008295 3.993658 -60.308413 -1.555722 121.959320 77.557033 121.072100 -5.289944 -20.592769 -1.901080 -0.032668 0.032692 -0.008351
-68.691866 53.161067 -24.650013 179.337831 -16.516508 -2.466187 -0.258994 16.117022 0.809708 -0.031757 1.607764 0.085294 -0.057057 2.652076 0.147387 -0.212229 14.319845 0.762508 -0.591696 16.824878 -4.774005 0.450148 -7.911381 -4.932254 -0.401243 -1.783030 1.866496 2.141886 -6.752905 -5.417432 -60.117394 -82.874651 91.799444 -4.603767 -31.157023 -17.730859 -6.770118 -2.512313 1.291671 -0.105401 -8.415800 11.289282 57.522184 -63.715156 -103.896117 1.766141 -20.218104 14.005558 -1.423082 -61.493415 14.677939 163.854133 87.869328 163.988753 -13.316229 -22.385407 11.855040 0.023991 -0.041768 -0.022051 3.981007 -60.321792 -1.532023 121.983166 77.554496 121.095750 -5.289580 -20.597388 -1.900553 -0.035729 0.033600 -0.008521
-68.692050 53.160683 -24.651518 179.338869 -16.514172 -2.473543 -0.256430 16.129393 0.815941 -0.030614 1.606046 0.084326 -0.056758 2.657342 0.148633 -0.206564 14.322169 0.763366 -0.604594 16.819644 -4.766432 0.432461 -7.922873 -4.919927 -0.406947 -1.809153 1.864153 2.145948 -6.760036 -5.428689 -60.090902 -82.861513 91.771134 -4.606163 -31.147525 -17.724010 -6.780887 -2.535904 1.299501 -0.109534 -8.430313 11.300954 57.516267 -63.725231 -103.900922 1.763203 -20.222890 14.004283 -1.441312 -61.492867 14.675897 163.244826 87.855810 163.358161 -13.140860 -22.394031 11.828263 0.031996 -0.044543 -0.023737 3.970496 -60.326372 -1.520517 121.992610 77.552604 121.105897 -5.291239 -20.598291 -1.899649 -0.033941 0.032463 -0.009907
-68.693786 53.160227 -24.652554 179.337862 -16.509592 -2.470626 -0.254196 16.135431 0.810607 -0.030203 1.606763 0.084839 -0.055727 2.659944 0.148748 -0.204858 14.318100 0.765949 -0.614072 16.821644 -4.759822 0.417148 -7.933237 -4.911778 -0.402356 -1.831831 1.854541 2.134814 -6.753754 -5.425412 -60.074751 -82.859558 91.759002 -4.611042 -31.137201 -17.714078 -6.794566 -2.558723 1.313572 -0.103986 -8.456518 11.321023 57.483066 -63.700178 -103.876229 1.743142 -20.222936 13.971740 -1.440129 -61.498726 14.722122 164.349097 87.877558 164.503695 -13.454402 -22.382598 11.866445 0.015557 -0.015884 -0.004123 3.976948 -60.331483 -1.527617 121.990535 77.550958 121.103170 -5.295670 -20.597802 -1.896236 -0.032728 0.030793 -0.012655
